<?xml version="1.0" encoding="UTF-8"?>
<!DOCTYPE svg PUBLIC "-//W3C//DTD SVG 1.1//EN" "http://www.w3.org/Graphics/SVG/1.1/DTD/svg11.dtd">
<svg xmlns="http://www.w3.org/2000/svg" version="1.1" width="701px" height="326px" style="shape-rendering:geometricPrecision; text-rendering:geometricPrecision; image-rendering:optimizeQuality; fill-rule:evenodd; clip-rule:evenodd" xmlns:xlink="http://www.w3.org/1999/xlink">
<g><path style="opacity:1" fill="#fefefe" d="M -0.5,-0.5 C 233.167,-0.5 466.833,-0.5 700.5,-0.5C 700.5,108.167 700.5,216.833 700.5,325.5C 466.833,325.5 233.167,325.5 -0.5,325.5C -0.5,216.833 -0.5,108.167 -0.5,-0.5 Z"/></g>
<g><path style="opacity:1" fill="#1e47ff" d="M 264.5,32.5 C 268.182,32.3347 271.848,32.5014 275.5,33C 276.354,34.0217 277.354,34.8551 278.5,35.5C 279.667,125.498 279.833,215.498 279,305.5C 276.604,308.013 273.604,309.013 270,308.5C 266.396,309.013 263.396,308.013 261,305.5C 260.333,215.833 260.333,126.167 261,36.5C 261.69,34.6498 262.856,33.3164 264.5,32.5 Z"/></g>
<g><path style="opacity:1" fill="#0c42ff" d="M 327.5,33.5 C 349.503,33.3334 371.503,33.5 393.5,34C 394.833,38.6667 394.833,43.3333 393.5,48C 385.507,48.4997 377.507,48.6664 369.5,48.5C 369.5,110.167 369.5,171.833 369.5,233.5C 363.833,233.5 358.167,233.5 352.5,233.5C 352.5,171.833 352.5,110.167 352.5,48.5C 344.167,48.5 335.833,48.5 327.5,48.5C 327.5,43.5 327.5,38.5 327.5,33.5 Z"/></g>
<g><path style="opacity:1" fill="#0e42ff" d="M 489.5,33.5 C 495.093,33.1934 500.593,33.5268 506,34.5C 506.5,100.832 506.667,167.166 506.5,233.5C 500.833,233.5 495.167,233.5 489.5,233.5C 489.5,166.833 489.5,100.167 489.5,33.5 Z"/></g>
<g><path style="opacity:1" fill="#1945ff" d="M 553.5,33.5 C 554.458,39.7436 554.791,46.077 554.5,52.5C 546.344,53.6566 538.01,53.8232 529.5,53C 528.167,46.6667 528.167,40.3333 529.5,34C 537.493,33.5003 545.493,33.3336 553.5,33.5 Z"/></g>
<g><path style="opacity:1" fill="#ff9903" d="M 120.5,305.5 C 119.833,269.167 119.167,232.833 118.5,196.5C 101.497,196.667 84.4967,196.5 67.5,196C 98.5404,142.085 129.707,88.2515 161,34.5C 161.5,71.1652 161.667,107.832 161.5,144.5C 178.837,144.333 196.17,144.5 213.5,145C 182.109,198.282 151.109,251.782 120.5,305.5 Z"/></g>
<g><path style="opacity:1" fill="#6f91ff" d="M 553.5,33.5 C 554.818,36.2575 555.485,39.4242 555.5,43C 555.498,46.3518 555.165,49.5185 554.5,52.5C 554.791,46.077 554.458,39.7436 553.5,33.5 Z"/></g>
<g><path style="opacity:1" fill="#0941ff" d="M 427.5,82.5 C 435.844,81.6838 443.844,82.8505 451.5,86C 457.165,90.1727 460.665,95.6727 462,102.5C 462.5,146.165 462.667,189.832 462.5,233.5C 457.167,233.5 451.833,233.5 446.5,233.5C 446.666,229.486 446.499,225.486 446,221.5C 445.586,221.043 445.086,220.709 444.5,220.5C 441.722,224.452 438.722,228.286 435.5,232C 413.309,239.979 401.142,232.146 399,208.5C 396.658,193.217 399.658,179.217 408,166.5C 419.518,156.738 432.185,148.738 446,142.5C 446.667,129.833 446.667,117.167 446,104.5C 444.807,99.9734 441.973,97.1401 437.5,96C 433.5,95.3333 429.5,95.3333 425.5,96C 421.23,97.2704 418.73,100.104 418,104.5C 417.5,114.494 417.334,124.494 417.5,134.5C 412.167,134.5 406.833,134.5 401.5,134.5C 401.333,123.495 401.5,112.495 402,101.5C 405.823,88.8387 414.323,82.5054 427.5,82.5 Z"/></g>
<g><path style="opacity:1" fill="#6682ff" d="M 602.5,81.5 C 599.026,82.5249 595.36,83.1916 591.5,83.5C 594.845,81.783 598.511,81.1164 602.5,81.5 Z"/></g>
<g><path style="opacity:1" fill="#1343ff" d="M 602.5,81.5 C 610.579,81.5353 618.246,83.3686 625.5,87C 629.758,91.3476 632.592,96.5142 634,102.5C 634.5,113.161 634.667,123.828 634.5,134.5C 629.167,134.5 623.833,134.5 618.5,134.5C 618.956,123.064 618.456,111.731 617,100.5C 615.363,98.1898 613.196,96.6898 610.5,96C 604.574,94.8898 598.908,95.5564 593.5,98C 592.54,99.4194 591.707,100.919 591,102.5C 590.333,114.5 590.333,126.5 591,138.5C 592.743,143.91 596.243,147.744 601.5,150C 625.172,152.996 636.505,166.329 635.5,190C 635.255,198.182 634.755,206.349 634,214.5C 632.505,224.023 627.338,230.523 618.5,234C 607.725,236.292 597.058,235.959 586.5,233C 578.791,227.6 574.624,220.1 574,210.5C 573.333,201.5 573.333,192.5 574,183.5C 578.737,182.531 583.57,182.197 588.5,182.5C 588.334,191.839 588.5,201.173 589,210.5C 589.165,216.329 591.998,220.162 597.5,222C 616.444,224.064 623.777,215.564 619.5,196.5C 619.333,191.167 619.167,185.833 619,180.5C 618.562,174.725 615.729,170.558 610.5,168C 598.353,165.511 587.853,160.011 579,151.5C 576.934,146.637 575.268,141.637 574,136.5C 573.106,124.118 573.439,111.785 575,99.5C 577.121,90.5441 582.621,85.2108 591.5,83.5C 595.36,83.1916 599.026,82.5249 602.5,81.5 Z"/></g>
<g><path style="opacity:1" fill="#0b42ff" d="M 534.5,83.5 C 539.762,83.1953 544.928,83.5286 550,84.5C 550.5,134.166 550.667,183.832 550.5,233.5C 544.833,233.5 539.167,233.5 533.5,233.5C 533.172,183.428 533.505,133.428 534.5,83.5 Z"/></g>
<g><path style="opacity:1" fill="#fbfcff" d="M 443.5,158.5 C 445.486,175.134 446.152,192.134 445.5,209.5C 442.145,219.843 435.145,224.009 424.5,222C 416.456,216.719 413.122,209.219 414.5,199.5C 413.644,178.361 423.31,164.694 443.5,158.5 Z"/></g>
<g><path style="opacity:1" fill="#9ab2ff" d="M 443.5,158.5 C 444.209,157.596 445.209,157.263 446.5,157.5C 446.83,175.008 446.497,192.341 445.5,209.5C 446.152,192.134 445.486,175.134 443.5,158.5 Z"/></g>
<g><path style="opacity:1" fill="#ffb340" d="M 118.5,196.5 C 119.167,232.833 119.833,269.167 120.5,305.5C 120.217,306.289 119.717,306.956 119,307.5C 118.5,270.502 118.333,233.502 118.5,196.5 Z"/></g>
<g><path style="opacity:1" fill="#808080" d="M 327.5,284.5 C 331.97,283.514 336.637,283.181 341.5,283.5C 341.737,284.791 341.404,285.791 340.5,286.5C 336.627,284.57 332.294,283.903 327.5,284.5 Z"/></g>
<g><path style="opacity:1" fill="#707070" d="M 497.5,283.5 C 496.877,290.255 497.544,296.588 499.5,302.5C 498.791,303.404 497.791,303.737 496.5,303.5C 496.176,296.646 496.509,289.979 497.5,283.5 Z"/></g>
<g><path style="opacity:1" fill="#191919" d="M 497.5,283.5 C 499.26,286.701 500.094,290.367 500,294.5C 501.858,291.588 504.358,290.088 507.5,290C 505.443,291.719 503.776,293.719 502.5,296C 508.855,304.931 508.021,305.431 500,297.5C 499.506,299.134 499.34,300.801 499.5,302.5C 497.544,296.588 496.877,290.255 497.5,283.5 Z"/></g>
<g><path style="opacity:1" fill="#2b2b2b" d="M 375.5,283.5 C 377.048,283.821 377.715,284.821 377.5,286.5C 374.752,286.598 374.086,285.598 375.5,283.5 Z"/></g>
<g><path style="opacity:1" fill="#0d0d0d" d="M 433.5,284.5 C 435.446,289.396 436.113,294.729 435.5,300.5C 438.898,300.18 442.232,300.513 445.5,301.5C 441.555,302.491 437.555,302.824 433.5,302.5C 433.5,296.5 433.5,290.5 433.5,284.5 Z"/></g>
<g><path style="opacity:1" fill="#1b1b1b" d="M 449.5,283.5 C 451.465,283.948 451.798,284.948 450.5,286.5C 449.614,285.675 449.281,284.675 449.5,283.5 Z"/></g>
<g><path style="opacity:1" fill="#1c1c1c" d="M 490.5,283.5 C 492.465,283.948 492.798,284.948 491.5,286.5C 490.614,285.675 490.281,284.675 490.5,283.5 Z"/></g>
<g><path style="opacity:1" fill="#2e2e2e" d="M 327.5,284.5 C 332.294,283.903 336.627,284.57 340.5,286.5C 338.833,286.5 337.167,286.5 335.5,286.5C 335.5,292.167 335.5,297.833 335.5,303.5C 334.5,303.5 333.5,303.5 332.5,303.5C 332.5,297.833 332.5,292.167 332.5,286.5C 330.219,286.923 328.552,286.256 327.5,284.5 Z"/></g>
<g><path style="opacity:1" fill="#0e0e0e" d="M 473.5,300.5 C 476.258,301.967 475.925,302.633 472.5,302.5C 471.883,302.389 471.383,302.056 471,301.5C 470.502,298.183 470.335,294.85 470.5,291.5C 466.5,290.833 466.5,290.167 470.5,289.5C 471.167,285.5 471.833,285.5 472.5,289.5C 476.5,290.167 476.5,290.833 472.5,291.5C 472.19,294.713 472.523,297.713 473.5,300.5 Z"/></g>
<g><path style="opacity:1" fill="#191919" d="M 344.5,289.5 C 347.365,289.055 349.865,289.722 352,291.5C 352.308,290.692 352.808,290.025 353.5,289.5C 354.833,293.833 354.833,298.167 353.5,302.5C 352.833,302.167 352.167,301.833 351.5,301.5C 345.658,304.391 342.325,302.391 341.5,295.5C 341.628,293.045 342.628,291.045 344.5,289.5 Z"/></g>
<g><path style="opacity:1" fill="#1d1d1d" d="M 361.5,289.5 C 364.914,290.247 368.247,290.247 371.5,289.5C 371.839,294.93 371.339,300.264 370,305.5C 367.159,307.504 363.993,308.004 360.5,307C 358.441,305.815 358.274,304.648 360,303.5C 363.175,307.657 366.008,307.491 368.5,303C 368.167,302.5 367.833,302 367.5,301.5C 359.527,303.692 356.694,300.692 359,292.5C 359.698,291.309 360.531,290.309 361.5,289.5 Z"/></g>
<g><path style="opacity:1" fill="#0c0c0c" d="M 375.5,289.5 C 376.8,291.223 377.467,293.39 377.5,296C 377.167,298.167 376.833,300.333 376.5,302.5C 375.508,298.217 375.174,293.884 375.5,289.5 Z"/></g>
<g><path style="opacity:1" fill="#1b1b1b" d="M 381.5,283.5 C 382.5,283.5 383.5,283.5 384.5,283.5C 384.337,285.857 384.503,288.19 385,290.5C 390.768,288.591 393.268,290.757 392.5,297C 392.167,298.833 391.833,300.667 391.5,302.5C 390.676,299.215 390.176,295.882 390,292.5C 388.612,291.446 387.112,291.28 385.5,292C 384.54,295.73 384.207,299.563 384.5,303.5C 383.5,303.5 382.5,303.5 381.5,303.5C 381.5,296.833 381.5,290.167 381.5,283.5 Z"/></g>
<g><path style="opacity:1" fill="#181818" d="M 408.5,289.5 C 409.097,294.294 408.43,298.627 406.5,302.5C 398.497,304.663 395.33,301.33 397,292.5C 397.5,291.333 398.333,290.5 399.5,290C 402.597,290.074 405.597,289.907 408.5,289.5 Z"/></g>
<g><path style="opacity:1" fill="#767676" d="M 408.5,289.5 C 409.486,293.97 409.819,298.637 409.5,303.5C 408.209,303.737 407.209,303.404 406.5,302.5C 408.43,298.627 409.097,294.294 408.5,289.5 Z"/></g>
<g><path style="opacity:1" fill="#0d0d0d" d="M 415.5,293.5 C 415.11,296.797 414.11,299.797 412.5,302.5C 412.5,298.167 412.5,293.833 412.5,289.5C 414.71,290.583 416.877,290.583 419,289.5C 420.711,289.439 422.044,290.106 423,291.5C 423.825,295.211 423.659,298.878 422.5,302.5C 421.676,299.215 421.176,295.882 421,292.5C 418.765,291.02 416.932,291.353 415.5,293.5 Z"/></g>
<g><path style="opacity:1" fill="#000000" d="M 449.5,289.5 C 450.8,291.223 451.467,293.39 451.5,296C 451.167,298.167 450.833,300.333 450.5,302.5C 449.508,298.217 449.174,293.884 449.5,289.5 Z"/></g>
<g><path style="opacity:1" fill="#242424" d="M 457.5,289.5 C 459.792,289.244 461.959,289.577 464,290.5C 464.688,291.332 464.521,291.998 463.5,292.5C 461.929,291.691 460.262,291.357 458.5,291.5C 458.5,292.5 458.5,293.5 458.5,294.5C 464.545,294.029 466.545,296.529 464.5,302C 460.553,304.431 457.553,303.597 455.5,299.5C 455.833,299.167 456.167,298.833 456.5,298.5C 458.737,300.817 461.07,300.983 463.5,299C 460.982,297.498 458.482,295.998 456,294.5C 455.387,292.505 455.887,290.838 457.5,289.5 Z"/></g>
<g><path style="opacity:1" fill="#030303" d="M 479.5,289.5 C 481.858,290.114 484.192,290.447 486.5,290.5C 484.807,291.228 483.307,292.228 482,293.5C 481.821,296.553 481.321,299.553 480.5,302.5C 479.508,298.217 479.174,293.884 479.5,289.5 Z"/></g>
<g><path style="opacity:1" fill="#000000" d="M 490.5,289.5 C 491.8,291.223 492.467,293.39 492.5,296C 492.167,298.167 491.833,300.333 491.5,302.5C 490.508,298.217 490.174,293.884 490.5,289.5 Z"/></g>
<g><path style="opacity:1" fill="#ededed" d="M 345.5,291.5 C 352.486,291.331 354.153,294.164 350.5,300C 348.559,300.743 346.726,300.576 345,299.5C 344.278,296.739 344.445,294.073 345.5,291.5 Z"/></g>
<g><path style="opacity:1" fill="#f8f8f8" d="M 362.5,291.5 C 368.643,292.026 369.976,294.86 366.5,300C 361.504,300.664 359.67,298.498 361,293.5C 361.717,292.956 362.217,292.289 362.5,291.5 Z"/></g>
<g><path style="opacity:1" fill="#f5f5f5" d="M 400.5,291.5 C 406.191,291.554 407.858,294.221 405.5,299.5C 398.413,300.573 396.746,297.907 400.5,291.5 Z"/></g>
<g><path style="opacity:1" fill="#757575" d="M 415.5,293.5 C 415.5,296.833 415.5,300.167 415.5,303.5C 414.209,303.737 413.209,303.404 412.5,302.5C 414.11,299.797 415.11,296.797 415.5,293.5 Z"/></g>
<g><path style="opacity:1" fill="#737373" d="M 473.5,300.5 C 474.5,300.5 475.5,300.5 476.5,300.5C 476.5,301.5 476.5,302.5 476.5,303.5C 474.901,303.768 473.568,303.434 472.5,302.5C 475.925,302.633 476.258,301.967 473.5,300.5 Z"/></g>
</svg>
